{"asset":{"version":"2.0","generator":"VECTARY"},"nodes":[{"translation":[-0.17662353515625004,0,0],"scale":[0.001,0.00364,0.001],"rotation":[-0.7071067811865476,0,0,0.7071067811865476],"name":"3D Text - O","mesh":0},{"translation":[-0.13465576171875002,0,0],"scale":[0.001,0.00364,0.001],"rotation":[-0.7071067811865476,0,0,0.7071067811865476],"name":"3D Text - s","mesh":1},{"translation":[-0.10591552734375001,0,0],"scale":[0.001,0.00364,0.001],"rotation":[-0.7071067811865476,0,0,0.7071067811865476],"name":"3D Text - a","mesh":2},{"translation":[-0.06759521484375,0,0],"scale":[0.001,0.00364,0.001],"rotation":[-0.7071067811865476,0,0,0.7071067811865476],"name":"3D Text - y","mesh":3},{"translation":[-0.035471191406250005,0,0],"scale":[0.001,0.00364,0.001],"rotation":[-0.7071067811865476,0,0,0.7071067811865476],"name":"3D Text - d","mesh":4},{"translation":[0.013835449218750002,0,0],"scale":[0.001,0.00364,0.001],"rotation":[-0.7071067811865476,0,0,0.7071067811865476],"name":"3D Text - O","mesh":5},{"translation":[0.055803222656250005,0,0],"scale":[0.001,0.00364,0.001],"rotation":[-0.7071067811865476,0,0,0.7071067811865476],"name":"3D Text - m","mesh":6},{"translation":[0.09992431640625002,0,0],"scale":[0.001,0.00364,0.001],"rotation":[-0.7071067811865476,0,0,0.7071067811865476],"name":"3D Text - a","mesh":7},{"translation":[0.13824462890625003,0,0],"scale":[0.001,0.00364,0.001],"rotation":[-0.7071067811865476,0,0,0.7071067811865476],"name":"3D Text - r","mesh":8}],"materials":[{"pbrMetallicRoughness":{"baseColorFactor":[0.7969165429079781,0.000023328004666098932,0.025371276904734584,1],"metallicFactor":0,"roughnessFactor":0.2},"name":"Light Glaze","emissiveFactor":[0,0,0],"alphaMode":"OPAQUE","doubleSided":false}],"meshes":[{"primitives":[{"mode":4,"attributes":{"POSITION":1,"NORMAL":2},"material":0,"indices":0}]},{"primitives":[{"mode":4,"attributes":{"POSITION":4,"NORMAL":5},"material":0,"indices":3}]},{"primitives":[{"mode":4,"attributes":{"POSITION":7,"NORMAL":8},"material":0,"indices":6}]},{"primitives":[{"mode":4,"attributes":{"POSITION":10,"NORMAL":11},"material":0,"indices":9}]},{"primitives":[{"mode":4,"attributes":{"POSITION":13,"NORMAL":14},"material":0,"indices":12}]},{"primitives":[{"mode":4,"attributes":{"POSITION":1,"NORMAL":2},"material":0,"indices":0}]},{"primitives":[{"mode":4,"attributes":{"POSITION":16,"NORMAL":17},"material":0,"indices":15}]},{"primitives":[{"mode":4,"attributes":{"POSITION":7,"NORMAL":8},"material":0,"indices":6}]},{"primitives":[{"mode":4,"attributes":{"POSITION":19,"NORMAL":20},"material":0,"indices":18}]}],"accessors":[{"bufferView":0,"byteOffset":0,"componentType":5125,"count":480,"type":"SCALAR"},{"bufferView":1,"byteOffset":0,"componentType":5126,"count":320,"max":[44.921875,2.4741093353051634e-15,40.4052734375],"min":[1.708984375,-15,-1.0009765625],"type":"VEC3"},{"bufferView":2,"byteOffset":0,"componentType":5126,"count":320,"type":"VEC3"},{"bufferView":3,"byteOffset":0,"componentType":5125,"count":732,"type":"SCALAR"},{"bufferView":4,"byteOffset":0,"componentType":5126,"count":490,"max":[30.56640625,2.445705779484885e-15,39.94140625],"min":[1.3671875,-15,-0.537109375],"type":"VEC3"},{"bufferView":5,"byteOffset":0,"componentType":5126,"count":490,"type":"VEC3"},{"bufferView":6,"byteOffset":0,"componentType":5125,"count":132,"type":"SCALAR"},{"bufferView":7,"byteOffset":0,"componentType":5126,"count":90,"max":[42.0654296875,2.439726150393743e-15,39.84375],"min":[0.5126953125,-15,0],"type":"VEC3"},{"bufferView":8,"byteOffset":0,"componentType":5126,"count":90,"type":"VEC3"},{"bufferView":9,"byteOffset":0,"componentType":5125,"count":96,"type":"SCALAR"},{"bufferView":10,"byteOffset":0,"componentType":5126,"count":63,"max":[35.1806640625,2.409827369663324e-15,39.35546875],"min":[0.5126953125,-15,0],"type":"VEC3"},{"bufferView":11,"byteOffset":0,"componentType":5126,"count":63,"type":"VEC3"},{"bufferView":12,"byteOffset":0,"componentType":5125,"count":312,"type":"SCALAR"},{"bufferView":13,"byteOffset":0,"componentType":5126,"count":208,"max":[37.8173828125,2.409827369663324e-15,39.35546875],"min":[3.41796875,-15,0],"type":"VEC3"},{"bufferView":14,"byteOffset":0,"componentType":5126,"count":208,"type":"VEC3"},{"bufferView":15,"byteOffset":0,"componentType":5125,"count":144,"type":"SCALAR"},{"bufferView":16,"byteOffset":0,"componentType":5126,"count":97,"max":[45.60546875,2.4322512963924608e-15,39.7216796875],"min":[3.41796875,-15,0],"type":"VEC3"},{"bufferView":17,"byteOffset":0,"componentType":5126,"count":97,"type":"VEC3"},{"bufferView":18,"byteOffset":0,"componentType":5125,"count":360,"type":"SCALAR"},{"bufferView":19,"byteOffset":0,"componentType":5126,"count":240,"max":[36.669921875,2.409827369663324e-15,39.35546875],"min":[3.41796875,-15,0],"type":"VEC3"},{"bufferView":20,"byteOffset":0,"componentType":5126,"count":240,"type":"VEC3"}],"bufferViews":[{"buffer":0,"byteOffset":0,"byteLength":1920,"target":34963},{"buffer":0,"byteOffset":1920,"byteLength":3840,"target":34962},{"buffer":0,"byteOffset":5760,"byteLength":3840,"target":34962},{"buffer":0,"byteOffset":9600,"byteLength":2928,"target":34963},{"buffer":0,"byteOffset":12528,"byteLength":5880,"target":34962},{"buffer":0,"byteOffset":18408,"byteLength":5880,"target":34962},{"buffer":0,"byteOffset":24288,"byteLength":528,"target":34963},{"buffer":0,"byteOffset":24816,"byteLength":1080,"target":34962},{"buffer":0,"byteOffset":25896,"byteLength":1080,"target":34962},{"buffer":0,"byteOffset":26976,"byteLength":384,"target":34963},{"buffer":0,"byteOffset":27360,"byteLength":756,"target":34962},{"buffer":0,"byteOffset":28116,"byteLength":756,"target":34962},{"buffer":0,"byteOffset":28872,"byteLength":1248,"target":34963},{"buffer":0,"byteOffset":30120,"byteLength":2496,"target":34962},{"buffer":0,"byteOffset":32616,"byteLength":2496,"target":34962},{"buffer":0,"byteOffset":35112,"byteLength":576,"target":34963},{"buffer":0,"byteOffset":35688,"byteLength":1164,"target":34962},{"buffer":0,"byteOffset":36852,"byteLength":1164,"target":34962},{"buffer":0,"byteOffset":38016,"byteLength":1440,"target":34963},{"buffer":0,"byteOffset":39456,"byteLength":2880,"target":34962},{"buffer":0,"byteOffset":42336,"byteLength":2880,"target":34962}],"scene":0,"scenes":[{"nodes":[0,1,2,3,4,5,6,7,8],"name":"name"}],"extensionsUsed":["KHR_texture_transform"],"buffers":[{"byteLength":45216,"uri":"name.bin"}]}